<svg data-v-0dd9719b="" version="1.0" xmlns="http://www.w3.org/2000/svg" xmlns:xlink="http://www.w3.org/1999/xlink" width="100%" height="100%" viewBox="0 0 340.000000 250.000000" preserveAspectRatio="xMidYMid meet" color-interpolation-filters="sRGB" style="margin: auto;"> <rect data-v-0dd9719b="" x="0" y="0" width="100%" height="100%" fill="#ffffff" fill-opacity="1" class="background"></rect> <rect data-v-0dd9719b="" x="0" y="0" width="100%" height="100%" fill="url(#watermark)" fill-opacity="1" class="watermarklayer"></rect> <g data-v-0dd9719b="" fill="#ef5b24" class="icon-text-wrapper icon-svg-group iconsvg" transform="translate(82.78499603271484,80.2795181274414)"><g class="iconsvg-imagesvg" transform="translate(57.215003967285156,0)"><g><rect fill="#ef5b24" fill-opacity="0" stroke-width="2" x="0" y="0" width="60" height="40.97465034965035" class="image-rect"></rect> <svg filter="url(#colors6020815003)" x="0" y="0" width="60" height="40.97465034965035" filtersec="colorsf7862474851" class="image-svg-svg primary" style="overflow: visible;"><svg xmlns="http://www.w3.org/2000/svg" viewBox="-0.048041053116321564 -0.015477912500500679 76.72804260253906 52.398250579833984"><path d="M76.68 17.74c0 .38-.24.49-.44.64a14.37 14.37 0 0 1-6.13 2.94 11 11 0 0 1-5.43-.52c-1.86-.63-3.47-1.74-5.27-2.49a9.9 9.9 0 0 0-5.13-.94 22.17 22.17 0 0 0-4.93 1.32c-.45.18-1.17.62-1.33.26s.57-.67 1-.94a13.28 13.28 0 0 1 7-2.68 8.07 8.07 0 0 1 2.8.34c.26.08.63.25.82.05s-.09-.52-.22-.76A23.6 23.6 0 0 0 44.78 3.21a22.29 22.29 0 0 0-9.9-.68 23.64 23.64 0 0 0-14.57 8.07 23.34 23.34 0 0 0-5 9.7c-.13.52-.57 1.17-.2 1.54s1-.16 1.44-.32A24.37 24.37 0 0 1 24 20.37a30.6 30.6 0 0 1 10.48 2c2.62 1 5.1 2.23 7.66 3.32a29.79 29.79 0 0 0 12.7 2.65 34.64 34.64 0 0 0 6.85-.94c2.86-.67 5.67-1.55 8.46-2.47.18-.06.44-.23.55.05s-.21.32-.37.44a39.67 39.67 0 0 1-5.21 3.09 1.71 1.71 0 0 0-1 1.5 22.42 22.42 0 0 1-1.57 5.92 26.24 26.24 0 0 1-18.9 15.87 24 24 0 0 1-8.37.38A26.27 26.27 0 0 1 14 35.63a1.86 1.86 0 0 0-1-1.06 12 12 0 0 0-6.8-1.63 22.67 22.67 0 0 0-5.2 1.4c-.34.12-.86.45-1 .18-.22-.42.37-.59.67-.8A15.23 15.23 0 0 1 6.29 31a11.67 11.67 0 0 1 7.76 1.37A22 22 0 0 0 19 34.62a12.1 12.1 0 0 0 6.74-.45l2.9-1c.17.37-.1.5-.26.62-2.49 1.93-5.2 3.3-8.44 3.2a15.51 15.51 0 0 1-2.4-.43c-.17 0-.38-.16-.51 0s0 .35.12.51a24.35 24.35 0 0 0 8.69 9.38 23 23 0 0 0 14.54 3.45 23.2 23.2 0 0 0 16.09-8.34 24.09 24.09 0 0 0 5.15-10.34 6.17 6.17 0 0 0 .08-.62v-.61a30.13 30.13 0 0 1-4.43 1.32 26.67 26.67 0 0 1-7.19.54 36.44 36.44 0 0 1-8.89-2c-2.2-.8-4.29-1.87-6.43-2.81a33.07 33.07 0 0 0-10.1-2.91 30.46 30.46 0 0 0-6.61.1 60.58 60.58 0 0 0-11.8 3 2.87 2.87 0 0 1-1.19.23c0-.38.34-.46.55-.6a53.17 53.17 0 0 1 6.21-3.58 1.25 1.25 0 0 0 .74-1c1.71-10.13 7.47-17 17-20.72A24 24 0 0 1 43.2.53C51.92 2.3 58.12 7.32 62 15.25c.64 2.84 3 3.34 5.32 3.94 2.8.73 5.4-.19 8-1.09a3.8 3.8 0 0 1 1.36-.36z" fill="#000000"></path></svg></svg> <defs><filter id="colors6020815003"><feColorMatrix type="matrix" values="0 0 0 0 0.0859375  0 0 0 0 0.5234375  0 0 0 0 0.79296875  0 0 0 1 0" class="icon-fecolormatrix"></feColorMatrix></filter> <filter id="colorsf7862474851"><feColorMatrix type="matrix" values="0 0 0 0 0.99609375  0 0 0 0 0.99609375  0 0 0 0 0.99609375  0 0 0 1 0" class="icon-fecolormatrix"></feColorMatrix></filter> <filter id="colorsb7107802511"><feColorMatrix type="matrix" values="0 0 0 0 0  0 0 0 0 0  0 0 0 0 0  0 0 0 1 0" class="icon-fecolormatrix"></feColorMatrix></filter></defs></g></g> <g transform="translate(0,47.974647521972656)"><g data-gra="path-name" fill-rule="" class="tp-name iconsvg-namesvg"><g transform="scale(1)"><g><path d="M20.02 6.03L20.02 6.03 15.53 6.03 15.53-30.6 20.02-30.6 20.02 6.03ZM32.53-28.38L32.53-28.38 3.01-28.38 3.01-32.82 32.53-32.82 32.53-28.38ZM67.79 6.54L67.79 6.54 41.06 6.54 41.06-30.09 45.5-30.09 45.5 2.1 67.79 2.1 67.79 6.54ZM64.44-10.81L64.44-10.81 41.46-10.81 41.46-15.3 64.44-15.3 64.44-10.81ZM67.39-28.15L67.39-28.15 39.58-28.15 39.58-32.64 67.39-32.64 67.39-28.15ZM91.73 5.69L91.73 5.69Q88.32 5.69 85.31 4.18 82.29 2.67 80.05 0.03 77.8-2.62 76.49-6.11 75.18-9.61 75.18-13.65L75.18-13.65Q75.18-17.63 76.49-21.16 77.8-24.68 80.05-27.3 82.29-29.91 85.31-31.45 88.32-32.99 91.73-32.99L91.73-32.99Q95.66-32.99 99.1-31 102.54-29 104.93-25.31L104.93-25.31 101.18-22.86Q99.47-25.59 97-27.04 94.52-28.49 91.73-28.49L91.73-28.49Q89.23-28.49 87.04-27.33 84.85-26.16 83.2-24.14 81.55-22.12 80.59-19.42 79.62-16.72 79.62-13.65L79.62-13.65Q79.62-10.58 80.59-7.88 81.55-5.18 83.2-3.13 84.85-1.08 87.04 0.09 89.23 1.25 91.73 1.25L91.73 1.25Q94.52 1.25 97-0.23 99.47-1.71 101.18-4.44L101.18-4.44 104.93-1.99Q102.54 1.71 99.1 3.7 95.66 5.69 91.73 5.69ZM124.32 7.11L124.32 7.11Q123.87 7.11 123.38 7.08 122.9 7.05 122.45 7L122.45 7Q120.91 6.82 119.18 6.23 117.44 5.63 115.88 4.38 114.31 3.13 113 1.11 111.7-0.91 110.96-3.92L110.96-3.92 115.28-5Q116.99 1.82 122.96 2.56L122.96 2.56Q124.49 2.73 126.11 2.5 127.73 2.27 129.13 1.59 130.52 0.91 131.49-0.2 132.45-1.31 132.74-2.79L132.74-2.79Q132.91-3.87 132.8-5.18 132.68-6.48 131.72-7.79 130.75-9.1 128.67-10.35 126.6-11.6 122.84-12.57L122.84-12.57Q119.83-13.36 117.53-15.01 115.22-16.66 113.97-18.94L113.97-18.94Q111.92-22.64 113.23-26.73L113.23-26.73Q114.31-30.14 117.1-32.16 119.89-34.18 123.7-34.35L123.7-34.35Q125.57-34.41 127.62-33.9 129.67-33.38 131.57-32.27 133.48-31.17 135.07-29.37 136.66-27.58 137.69-25.08L137.69-25.08 133.54-23.43Q132.8-25.31 131.63-26.56 130.46-27.81 129.16-28.55 127.85-29.29 126.45-29.6 125.06-29.91 123.87-29.86L123.87-29.86Q121.48-29.74 119.8-28.55 118.12-27.36 117.5-25.36L117.5-25.36Q116.82-23.03 117.9-21.1L117.9-21.1Q118.69-19.68 120.28-18.57 121.88-17.46 123.98-16.89L123.98-16.89Q128.64-15.64 131.4-13.88 134.16-12.11 135.55-10.09 136.95-8.08 137.2-5.97 137.46-3.87 137.12-1.99L137.12-1.99Q136.72 0.23 135.5 1.93 134.27 3.64 132.51 4.78 130.75 5.91 128.62 6.51 126.48 7.11 124.32 7.11ZM173.29 6.54L173.29 6.54 159.53-28.15 155.2-28.15 155.2-32.64 162.54-32.64 177.44 4.89 173.29 6.54ZM146.96 6.65L146.96 6.65 142.81 5 157.19-31.11 161.35-29.46 146.96 6.65ZM170.62-5.18L170.62-5.18 150.48-5.18 150.48-9.67 170.62-9.67 170.62-5.18Z" transform="translate(-3.009999990463257, 34.35631561279297)"></path></g> <!----> <!----> <!----> <!----> <!----> <!----> <!----></g></g> <!----></g></g><defs v-gra="od"></defs></svg>